PathFileType	4	(X/Y/Z)	3_coords_data.trc
DataRate	CameraRate	NumFrames	NumMarkers	Units	OrigDataRate	OrigDataStartFrame	OrigNumFrames
30.0	30.0	5	21	m	30.0	39	48
Frame#	Time	THUMB_TIP	THUMB_IP	THUMB_MCP	THUMB_CMC	INDEX_TIP	INDEX_DIP	INDEX_PIP	INDEX_MCP	MIDDLE_TIP	MIDDLE_DIP	MIDDLE_PIP	MIDDLE_MCP	RING_TIP	RING_DIP	RING_PIP	RING_MCP	PINKY_TIP	PINKY_DIP	PINKY_PIP	PINKY_MCP	WRIST
X1	Y1	Z1	X2	Y2	Z2	X3	Y3	Z3	X4	Y4	Z4	X5	Y5	Z5	X6	Y6	Z6	X7	Y7	Z7	X8	Y8	Z8	X9	Y9	Z9	X10	Y10	Z10	X11	Y11	Z11	X12	Y12	Z12	X13	Y13	Z13	X14	Y14	Z14	X15	Y15	Z15	X16	Y16	Z16	X17	Y17	Z17	X18	Y18	Z18	X19	Y19	Z19	X20	Y20	Z20	X21	Y21	Z21
37	1.2666666666666608	0.530930554218578	-0.029764140583365406	-0.1527131782617771	0.5138893427362787	-0.030891783205700185	-0.13734029520973234	0.4902357783903668	-0.035112057392989726	-0.11755347688242423	0.4758521543150742	-0.03237893437852668	-0.0754164219657778	0.5760269027151695	-0.03210239359392342	-0.14209523472200553	0.5631573027900056	-0.01935998723590726	-0.14216215238343405	0.542468579836589	-0.005419804706928044	-0.13905443833360293	0.5032648357574958	-0.0016162120047401585	-0.12286075972938104	0.5886036436854454	-0.029593841318614977	-0.12798562486405796	0.577112811153237	-0.015639412663512875	-0.1268744594279464	0.5543175633610274	0.001928838525011245	-0.12227633173629915	0.513344334727682	0.009922405393316458	-0.10635636486819489	0.5877315079909666	-0.01915295244114379	-0.10821777322351611	0.5781932930957608	-0.004006484562033674	-0.10607138849566267	0.5600442870336743	0.012611388423110492	-0.1022451820966348	0.5220979591046812	0.01562577543588861	-0.08861761805743384	0.5859346727484956	-0.012913271989082764	-0.08875526099790387	0.5768949129582093	0.0009139785319316474	-0.08427308675284995	0.5600088932914643	0.01214522109055638	-0.0788386089119123	0.5258007255990159	0.011393264347142829	-0.06743162529741686	0.4622830810018609	-0.023011742144276925	-0.051989820119430985
38	1.299999999999994	0.5340965345041523	-0.03248895105682248	-0.15005380018389142	0.5161405183392261	-0.03317364473413653	-0.13573204477286888	0.49182919347005183	-0.03680566445137168	-0.11663785937838078	0.4763214700804973	-0.03267412730434194	-0.07501657977196097	0.5722393977407539	-0.03887715705190331	-0.13724887455759044	0.5614412751173076	-0.024471151012751324	-0.13921548021428115	0.5422236950228023	-0.008303313534912093	-0.1380772888413313	0.5027936578809628	-0.0020378960781830546	-0.12325660029166963	0.5833910763269128	-0.036813642724443874	-0.12320534611324674	0.5743314874421288	-0.021146222056255715	-0.12388046006268583	0.5535658101381578	-0.0008477832328500634	-0.12139659665263225	0.5127329234663779	0.010008878796475162	-0.10687226614721479	0.5829286604410227	-0.024688022245703545	-0.10534564782287403	0.5757484116208392	-0.00816867992984649	-0.10460042548572301	0.559384673205184	0.010441944848749607	-0.1021402040700129	0.5215094281027969	0.016029914828763814	-0.08914169515796566	0.5816819150085003	-0.017026800717483193	-0.08782711901954654	0.5751083650366065	-0.0016342145645494854	-0.08424149044264018	0.5593879187079318	0.011365928530149283	-0.07927400961785425	0.5252054919596542	0.012305787075055141	-0.06780396957807178	0.4622830810018609	-0.023011742144276925	-0.051989820119430985
40	1.3333333333333337	0.5370105357014898	-0.03429708046386559	-0.14739102672897725	0.5182411940227101	-0.03476494836332611	-0.1341436529298471	0.49334133789894075	-0.0380434503477628	-0.11575701131824145	0.47670973989944165	-0.03287475730802836	-0.07468920689380143	0.5679352715950667	-0.04398657999439293	-0.1327688553110793	0.5594332654509667	-0.02843519522641802	-0.1364931436087386	0.5418332239046262	-0.010496262575622528	-0.13715877557710587	0.5023634473318874	-0.002132575963104788	-0.1235271367341172	0.5778025063128699	-0.04218918718327658	-0.11871559893573425	0.5713324374708358	-0.02543075692113228	-0.12101629976986839	0.5527547751277957	-0.002980888871323195	-0.1204839123036856	0.5121888390123233	0.0102416119909009	-0.10722803741653086	0.5777996632513855	-0.028932874519042584	-0.1023646351030344	0.5731476723457222	-0.011525904299545697	-0.10296160109132724	0.5586877793600862	0.008716339067592171	-0.10180269759684624	0.5209719438092651	0.016504724048099217	-0.08949101038108076	0.5771117986024301	-0.02031359835886848	-0.08655092275231335	0.5732428340153327	-0.003843235752453378	-0.08395125572806061	0.5588051588442953	0.010733604316579215	-0.07949241190286827	0.5246724012657382	0.013115953680222892	-0.06808352402573437	0.4622830810018608	-0.023011742144276925	-0.051989820119430985
41	1.3666666666666671	0.53943042122334	-0.03564553772724066	-0.14501650594097065	0.5200160109839208	-0.035976665210390335	-0.13272947905708038	0.4946346409642628	-0.03900016295855646	-0.1149681582364871	0.47702016060530805	-0.033023474634761296	-0.07442313044806126	0.5638234357576402	-0.04758935209002724	-0.1290608133832598	0.5574971791702654	-0.03141827622311433	-0.13420617856925443	0.5414301955094567	-0.012203112366527713	-0.1363600929147742	0.5020264893378196	-0.0021446888012468523	-0.12371840990495786	0.5726911598644402	-0.04588084520727331	-0.11498080132949928	0.5685464045598393	-0.028619867180932457	-0.11856962300787266	0.5520094585100367	-0.004645896061145183	-0.11965942762041626	0.5117618967922476	0.01045435109046422	-0.10748304750426219	0.5731536336138603	-0.031861893630539484	-0.09978503133557937	0.5707592661056636	-0.01407483062323267	-0.10148426463615723	0.5580419506318928	0.007336503119099835	-0.1014160479589925	0.5205376077430232	0.016912743717258483	-0.08973526397501774	0.5730166484377062	-0.022550926792570536	-0.08531202050993425	0.5715413996542781	-0.005584131455291685	-0.0835940283650497	0.558301215287396	0.01021246677317822	-0.07959690172966849	0.5242362913564705	0.013767590008715969	-0.06829090741866672	0.4622830810018608	-0.023011742144276925	-0.051989820119430985
42	1.4000000000000006	0.5412837352821009	-0.036546772782709014	-0.1431059923098103	0.5213996222697783	-0.03680909849525715	-0.13159281573104964	0.49565804834962	-0.039670479962288785	-0.11433002718999519	0.477242389681227	-0.03311949353105048	-0.07423217073123956	0.5603924793758379	-0.04989918369459645	-0.12625765347242413	0.5558831385832692	-0.03348534451719343	-0.13244245169668567	0.5411038401112209	-0.013415204851638385	-0.13572447294573675	0.5018081641146181	-0.002104152497719669	-0.12382716078639056	0.5685771525697819	-0.04820206441005548	-0.11214430081128879	0.5662825566819824	-0.030812860313836343	-0.11665544374980519	0.5514365416120406	-0.005840521565840806	-0.11897658226321439	0.5114797032759621	0.010619716002999602	-0.10763376205121178	0.569415057057462	-0.033701145410247824	-0.09775472345019653	0.5688218878607777	-0.01585876884425541	-0.10026425503625602	0.5575375044333897	0.006328120023202932	-0.10102886738689132	0.5202342646237818	0.0172235847886133	-0.08987189731197476	0.5697791521256861	-0.023941088521150733	-0.08425512014395875	0.5701723872773942	-0.006859623723608377	-0.08322123113357871	0.5579303911960832	0.009808459208805131	-0.07959899945913385	0.5239259108464198	0.01422993864361255	-0.06841734990475534	0.4622830810018609	-0.023011742144276925	-0.051989820119430985
